# xmcd
#
# Track frame offsets: 
#        150
#        21668
#        33894
#        51371
#        67966
#        78885
#        91390
#        112593
#        127243
#        141303
#        154758
#
# Disc length: 2218 seconds
#
# Revision: 0
# Processed by: cddbd v1.5.2PL0 Copyright (c) Steve Scherf et al.
# Submitted via: ExactAudioCopy v1.0b1
#
DISCID=8f08a80b
DTITLE=Townes Van Zandt - For the Sake Of The Song
DYEAR=1968
DGENRE=Country
TTITLE0=For The Sake Of The Song
TTITLE1=Tecumseh Valley
TTITLE2=Many A Fine Lady
TTITLE3=Quicksilver Daydreams of Maria
TTITLE4=Waitin' Round to Die
TTITLE5=I'll Be Here In the Morning
TTITLE6=Sad Cinderella
TTITLE7=The Velvet Voices
TTITLE8=Talkin' Karate Blues
TTITLE9=All Your Young Servants
TTITLE10=Sixteen Summers, Fifteen Falls
EXTD=
EXTT0=
EXTT1=
EXTT2=
EXTT3=
EXTT4=
EXTT5=
EXTT6=
EXTT7=
EXTT8=
EXTT9=
EXTT10=
PLAYORDER=
